# xmcd
#
# Track frame offsets: 
#        150
#        18695
#        41450
#        52947
#        68292
#        83380
#        108342
#        119722
#        137470
#        158227
#        173925
#
# Disc length: 2615 seconds
#
# Revision: 0
# Processed by: cddbd v1.5.2PL0 Copyright (c) Steve Scherf et al.
# Submitted via: ExactAudioCopy v0.99pb3
#
DISCID=820a350b
DTITLE=Big Joe and The Dynaflows - Cool Dynaflow
DYEAR=1991
DGENRE=Blues
TTITLE0=Cool Dynaflow
TTITLE1=Trouble Walkin' Down The Road
TTITLE2=Black Cadillac
TTITLE3=Tough Act To Follow
TTITLE4=Mambo Mama
TTITLE5=I Lost My True Love
TTITLE6=Let's Rock (One More Time)
TTITLE7=Livin' With The Blues
TTITLE8=I'd Rather Drink Muddy Water
TTITLE9=Alberta's Kitchen
TTITLE10=All This And Gravy Too
EXTD=
EXTT0=
EXTT1=
EXTT2=
EXTT3=
EXTT4=
EXTT5=
EXTT6=
EXTT7=
EXTT8=
EXTT9=
EXTT10=
PLAYORDER=
